<?xml version="1.0" encoding="utf-8"?>
<!-- Generator: Adobe Illustrator 16.0.0, SVG Export Plug-In . SVG Version: 6.00 Build 0)  -->
<svg version="1.2" baseProfile="tiny" id="レイヤー_1"
     xmlns="http://www.w3.org/2000/svg" x="0px" y="0px" width="580.838px" height="600px"
     viewBox="0 0 580.838 600" xml:space="preserve">
<metadata><?xpacket begin="﻿" id="W5M0MpCehiHzreSzNTczkc9d"?>
<x:xmpmeta xmlns:x="adobe:ns:meta/" x:xmptk="Adobe XMP Core 5.3-c011 66.145661, 2012/02/06-14:56:27        ">
   <rdf:RDF xmlns:rdf="http://www.w3.org/1999/02/22-rdf-syntax-ns#">
      <rdf:Description rdf:about=""
            xmlns:dc="http://purl.org/dc/elements/1.1/">
         <dc:format>image/svg+xml</dc:format>
         <dc:title>
            <rdf:Alt>
               <rdf:li xml:lang="x-default">Print</rdf:li>
            </rdf:Alt>
         </dc:title>
      </rdf:Description>
      <rdf:Description rdf:about=""
            xmlns:xmp="http://ns.adobe.com/xap/1.0/"
            xmlns:xmpGImg="http://ns.adobe.com/xap/1.0/g/img/">
         <xmp:MetadataDate>2014-06-02T00:27:26+09:00</xmp:MetadataDate>
         <xmp:ModifyDate>2014-06-02T00:27:26+09:00</xmp:ModifyDate>
         <xmp:CreateDate>2014-06-02T00:27:26+09:00</xmp:CreateDate>
         <xmp:CreatorTool>Adobe Illustrator CS6 (Macintosh)</xmp:CreatorTool>
         <xmp:Thumbnails>
            <rdf:Alt>
               <rdf:li rdf:parseType="Resource">
                  <xmpGImg:width>248</xmpGImg:width>
                  <xmpGImg:height>256</xmpGImg:height>
                  <xmpGImg:format>JPEG</xmpGImg:format>
                  <xmpGImg:image>/9j/4AAQSkZJRgABAgEASABIAAD/7QAsUGhvdG9zaG9wIDMuMAA4QklNA+0AAAAAABAASAAAAAEA&#xA;AQBIAAAAAQAB/+4ADkFkb2JlAGTAAAAAAf/bAIQABgQEBAUEBgUFBgkGBQYJCwgGBggLDAoKCwoK&#xA;DBAMDAwMDAwQDA4PEA8ODBMTFBQTExwbGxscHx8fHx8fHx8fHwEHBwcNDA0YEBAYGhURFRofHx8f&#xA;Hx8fHx8fHx8fHx8fHx8fHx8fHx8fHx8fHx8fHx8fHx8fHx8fHx8fHx8fHx8f/8AAEQgBAAD4AwER&#xA;AAIRAQMRAf/EAaIAAAAHAQEBAQEAAAAAAAAAAAQFAwIGAQAHCAkKCwEAAgIDAQEBAQEAAAAAAAAA&#xA;AQACAwQFBgcICQoLEAACAQMDAgQCBgcDBAIGAnMBAgMRBAAFIRIxQVEGE2EicYEUMpGhBxWxQiPB&#xA;UtHhMxZi8CRygvElQzRTkqKyY3PCNUQnk6OzNhdUZHTD0uIIJoMJChgZhJRFRqS0VtNVKBry4/PE&#xA;1OT0ZXWFlaW1xdXl9WZ2hpamtsbW5vY3R1dnd4eXp7fH1+f3OEhYaHiImKi4yNjo+Ck5SVlpeYmZ&#xA;qbnJ2en5KjpKWmp6ipqqusra6voRAAICAQIDBQUEBQYECAMDbQEAAhEDBCESMUEFURNhIgZxgZEy&#xA;obHwFMHR4SNCFVJicvEzJDRDghaSUyWiY7LCB3PSNeJEgxdUkwgJChgZJjZFGidkdFU38qOzwygp&#xA;0+PzhJSktMTU5PRldYWVpbXF1eX1RlZmdoaWprbG1ub2R1dnd4eXp7fH1+f3OEhYaHiImKi4yNjo&#xA;+DlJWWl5iZmpucnZ6fkqOkpaanqKmqq6ytrq+v/aAAwDAQACEQMRAD8A9U4q7FXYq7FXYq7FXYq7&#xA;FXYq7FUv1bzDomkaVe6rqN7Fb6fpyNJe3DNURhevILU8uwUCpOw3xV47N/zlTo+q3b2HkLytq/m2&#xA;+jFW9GIwQgHYMz0mkUe7RjFXfWv+crfNW8Fto/kayfo0xF3dhT7UuUr81TFWz/zjJNrgZ/P3nrW/&#xA;Mcjb+hHILa2UnssTm4FB/k8flirQ/wCcUdA08BvLHm7zDoUi/Z9G6UoCKEECNIW67/axV3/Kovz9&#xA;0jfQfzVkvAPspqtoJfEULym8r86Yq71P+cvNHO8XlzzGo6hS8LMNuhJsgD9GKsSuf+cwvMHl7V5N&#xA;H82+UIFvbchbo6fqEcgQkV+HitxGx9vV2xVmcn/OX/5Oo8Kia/kEqK8jpanjGzLUo/JlJZTseII8&#xA;CRvirINL/wCck/yU1IqsXmaGBzsVuori3pvTdpY1T/hsVZjpPnnyVrHEaTr+nX7N0W2u4JW3/wAl&#xA;GJxVO8VdirsVdirsVdirsVdirsVdirsVdirsVdirsVdiqR+ZfPPk3ywgfzBrVnphZeSR3MyJI48U&#xA;jJ5v/sRiry3WP+ctvy5juDZeW7PUvM9+1RDFZW7IjEe8vGT7oziqB/x3/wA5QebRTy95NtfKdk/S&#xA;71dy06V6fBJ6bf8ATucVd/0L7+Znmej/AJh/mRe3MT/3+maSDBbnxof3cX/Tvird3/zhl+WDwMlp&#xA;qOr2kpFPUE8DgjbZlMIqNuxGKsZl/wCcN9e0mZ7jyn55ms5W24tDJbtQdKzW81T1/kxVTb8uf+cw&#xA;vLtTpXmtdZValA14LhiKgio1KMCv04qhL/8AN7/nK/ybaSXfmTy5Fd2VsK3N3NaB40UHdmlsZEjU&#xA;b9Ttiq3Sv+c4r9QF1bynFMf2pLS7aKhp/JJFL3/y8VQfmb/nNrzHcxel5b8v22nMdjc3srXbfNUR&#xA;YFU/MtirBtJ8z+c/zW1Ca284fmTb6Dp4IDxXsrW8Lh6/3dvCIbduNN+brir3P8uv+cZPyOEaXD6s&#xA;nnO4ADFkuoxbeIZYrV+VP9aRhir2zTPJvlLSrMWWm6LY2drx4mGG3iRSP8oBd+vfFUq1b8ovyu1Y&#xA;s1/5V0uSR93lW1ijkJrXeSNUf8cVYbqv/OKP5KX1TDpM+nu3V7W7n/BZmmQfdiqS/wDQqNtpv/KK&#xA;eetf0Mj7AEwcL06egbXw8cVSPzRon5yfl3a/WZfzksFgA5Rx65GBJKASSEjdL6V/9hU4qwvyR/zm&#xA;N5/i1WC38xafb61ZSBkMdnCYbxpCp9Phxb0zV6VHDp0xV6XF/wA5H/mREDc6h+UWtQ6ezfDNH9YL&#xA;qtQPiVrRRvXY1AxVE2v/ADmD+XSyi31nStY0e5/bW4tkZR/wMnP/AITFWVaV/wA5I/kpqVBD5ngg&#xA;c9Vuop7anzaaNE7+OKsx0nzt5N1ig0nXtP1AtSi2t1DMd/ZGY4qnWKuxV2KuxV2KpdrXmPy/odv9&#xA;Z1rU7XTYKE+rdzRwqaeBcrXFXl/mL/nKz8otKcwWN3c69eE8Vg023Zqseg9Sb0Ub/Yk4qkv/ACt7&#xA;8/8AzUSnk38ujpVq/wBjUNcdk+E9HVJDaj/gef04q5Py0/5yd1U/W9W/Ma20ycglLSwg5Rr3VTxj&#xA;gHzPxfM4q8w8/f8AOLn556xrNzrl7qVh5j1C54B51m9CZxGgRapJHDEtFUCgbFURoPmD/nKT8trG&#xA;Owj8mxT2NunExw6bFMvFNuTyaWU5ED9pjU9TXFU6sv8AnNHWtPn+q+aPJhhnFOZhnkt3Ud/3M8bk&#xA;/wDBjFWaaL/zmN+U19xW/j1HSXP22nt1ljB9jbvK5/4DFWc6T+e35ParHztfNunRrStLuYWZ/wCB&#xA;uvROKpD5s/5yh/J/y8jLHqp1q6Xpb6Wnrg/89mKQU/2eKvKrv/nKT81/OVw+n/lx5SMbE8Tc+m9/&#xA;MlejEhY4Iv8AZhhiqnF/zj5+f35gSLP+Yfmc2FmxDNZyy/WmU9apa25S1X/gxir0ryh/ziZ+U+gl&#xA;JtQt5/MF2u/O/kpCG/yYIvTUj2flirMb78kPyhvYFhm8o6WiKKAwW6W70pTd4RG5+ZOKsN1f/nET&#xA;8mr6v1a1vdLr/wAsl27U+X1kXGKsJ1X/AJwg02vqaL5rnt3U1Rbq2WXcf5cckNPnxxVL/wDoX7/n&#xA;JPy5Q+W/OvrwJThbx6hdw1oe8MqmGnzbFUHq3nj/AJy98g6fLqPmGJbnSbXj6lxcR2NxGAzcQWe2&#xA;Ky7k0+I1xVQ0z/nN3zhElNU8u6fdPTZraSa2Fa+Dm47Yqxbzp/zln+anmBGt9Omh8u2bChWwUmdh&#xA;73EnJ1PvHxxVDflt5a/JrzFImq/mN58uF1a4Ytcaa0c6NUGgM1/KkqPyH8pB98VfWP5cWP5GaREs&#xA;XkWbRfVYcTLa3ENxdNtWjyl3mPyY4q9DxVSurO0u4jDdQR3EJ6xyqrqe3RgR3xViuq/k9+Vmq1N7&#xA;5U0t3b7UsdrFDIa+LxBG7eOKsO1X/nE/8lb6ph0qfTmbq1rdz9fZZmmUfQMVSX/oVNNNFPKnn7zB&#xA;olBSMCbmF2p/ug2mKsK/MXUfzb/Kq1eX/lbltqd2nExaPdwJJezKXA/u5FuyopvyZlHYHFUg8qf8&#xA;5mef7bUrWPzHaWOoaW0iLeSRRPDcrGTRmjKP6fIA1oU39sVZt5//AOcztO06+u9N8o6N+kXt5HiG&#xA;p3knC3ZkJXlHFFV3Q9iXX5Yq880j87POvn6+mtvM/wCZKeRrGoEMdlZyrz5V5cZYArqFp/uyb+OK&#xA;vVPJX5DfkDq90L2fzKfPGpSEGUzakjln7Vjt2SX/AGLucVe2+XfJPlDy3GI9B0az0wAUL20Ecbt/&#xA;rOBzb6TiqdYq7FXYqhtQ1PTdNtXvNRu4bK0j/vLi4kWKNfm7lVGKvHvPf/OT35LadDLZNIfNEgqG&#xA;tbSBZoOXvLPwiI90LYq+ePM2pat+bM31byN+V1npsLSgm+062b1eQO4lukFvbKGr8XJPpxVk3lT/&#xA;AJwt88X6rL5j1W00SNhUwRA3twD4MFMUQ+YkbFU51f8A5we1FF5aP5rhmb/fd5atCB/s45Jq/wDA&#xA;YqhtL/Kr/nLHyBYiy8ralHcafAXZLWzuLeWIcm5MViv0jG532XFUZ/yvL/nKDyyQPMXk767boR6k&#xA;76fcL901s3oj/gTiqY6T/wA5u6eG9LXvKlxbSISJGtLhZTX/AIxypDT5csVZ1o3/ADlr+TOo8RcX&#xA;91pTNSi3trIaE9i1v9YUffTFWdaP+av5aayB+jfM+mTuf91fWokk8f7t2V/wxVJvOP5//lR5Ujb6&#xA;9rsN5dAErY6cRdzEivwn0yUQ7f7sZcVeL6r/AM5UfmR5wvX0n8sPK0iudhdSRm9uFUmgkKKPQh/2&#xA;ZdffFVOx/wCcafzh8+XUepfmb5ne2jJ5izMn1ydK7lUjQraw9T9gmn8uKvYvJn/OOP5S+VUVotGT&#xA;Vb0CjXuqUunPuI2Hor81QHFWT6p+WH5c6qnHUPLGl3FBRXa0h5gf5LhQw+g4qwrV/wDnFf8AJXUe&#xA;TR6NJp8r1rJZ3M60J7hJGkjH/A4qwnV/+cI/KE3L9EeY7+yJ+z9ajhugNv8AI+qnr74qkP8A0Kz+&#xA;dHl7fyj55VESnFEuLzTyRTssXrL9BOKuFr/zmt5aIEcr6vapSp5WF7yp/wAZKXGKqcv/ADk5+e/l&#xA;hA3m/wAlIlshUNPNaXliWqaf3rM8W/QUXFU0tf8AnOLSmtybrylPHcj7KRXiOhPuzRIR/wACcVYF&#xA;5q/5yK/OPz4ZLbQgPLukPVT9SYrIR/l3jUckf8VBflirDdP8gW3qm51e4e9uXPOQVIUsdyWY/G2/&#xA;fbFXee7O1tvLkcdvCkSJOnFUUAD4W8MVevf841+V/LWp/lxcyalpVpfSS6hMkj3MEcxZUjj4gl1b&#xA;ZeRp88VZhrH5A/lVqdSdFWzlP+7bOSSGnyQN6f8AwuKsJ1f/AJxK8uyhjpGuXdo3VVuo47lfl8H1&#xA;c4ql0X5Rf85A+V6t5X83vNAu620d5cQ8iPGGUGD72xVGQ/mt/wA5ZeV6fpXSP01CnX1LOO4FB3L6&#xA;cyH6ScVR9p/zm1qlojwa35NH15B0hu3twW8DHLDKyj/ZHFWH+bv+cxPzM1cvFocNr5etWqFMSi5u&#xA;aHxlmHD6VjBxVW8l/lKv5nPbax5x/NCyuLidVcacLr63foHA/dstw8XontRUYdsVfQvlD/nGr8oP&#xA;LYjkj0ZdWu0p/peqN9aJp39IhYB9EeKvToYYYIkhhRYoowFSNAFVQOgAGwxVfirsVdirsVYh+YOs&#xA;flXpdn6vnp9KEJUlYtRjhnkcd/ThZZJH6dFU4q+TPzQ87/kLrIn0zyN5DafVbhWitNUiaWyRJGFF&#xA;eG0hY+r7K6r8sVSzyV/ziz+bHmUJPc2KaBYvQ+vqZMchHfjbqGmr/rqo98VZhqf/ADhJ51ihVtN8&#xA;waddy8avHOk9uOXcKyrPX5kDFVbQvKH/ADlv+W+njTfL8K3Oiwuzrb25sbqMs5LMQsgFxufADFUe&#xA;P+cnvzx8t0Xzf5IHpIDylktbywZgOreo/qx/Sq0xVkGi/wDObfk6eg1ny9qFixoCbWSG7UV6klzb&#xA;Gg9hirO9G/5yf/JXVOK/p76jM3+6r2CeGnzk4NF/w+Ks80bzr5P1wL+htcsNRLUotrcwzNv2KoxI&#xA;Ptiqc4qg9X1rSNGsJNQ1e9gsLGL+8ubmRYox3+0xArt0xV4L5+/5zH8n6UXs/KFnJr98CVF3Jyt7&#xA;NT0qtR6su/YKoPZsVeFea/OP5vfmWaeYtQa00dmDrp0YMFsKGopAp5OV7GUk++KsQ81+VLLRtOtp&#xA;oZZJJnk4SM1OJqpOwA26eOKs58vIiaFp4RQoNtExA23ZASfpJxVMMVYx+Yn/ABwF/wCM6fqbFXtf&#xA;/OLX/ktJf+2jP/ybixV7BirsVdirsVeAf85b2tt+htAuvSX6yLiaITUHPgUDca+FRXFWVeXfyP8A&#xA;yv1TyZor3eiIbiaxt5ZLlJZo5WkliV3ZmRxWrHvtiqSav/zih5NuOTaXql9YO3RZfTuI1+Q4xP8A&#xA;e+KpJH+Qn5w+Wqnyj5yZIk3WKO4urEtT/IQyR/QWxVFx+d/+cvPK5pdW761bxiqq0Fte8gPe14zn&#xA;6TXFUwsv+czPNelzLb+bfJqpKRR/Qkms2BHUiK4SYn5cvpxVnGh/85jflPflE1GPUdIc/beeATRA&#xA;+zW7yuf+AxVvzT/zmF+Vml27HRPrXmC6P92kUT2sVaV+OS5VHUf6sbYq83g/NX/nJL83Wmi8k2I0&#xA;XRVkMM13aERKhoGKvfTHlzVWBIh4tQjbFWR+Vf8AnDaOe5/Sf5geYZtUvZDzntrNmozf8WXU4Msl&#xA;fZFPvir3byj+XHkbyfAIvLei22nmnFp0TlO48HnflK3+ybFWR4q7FXYq7FUg1n8vvImt8jq/l7Tr&#xA;536yz2sLyfMOV5A/I4qwPWf+cV/yW1OrR6NJp0rVJksrmZOvgkjSRinsuKvHvzN/5xr/ACh8oWrX&#xA;F158l0VmXlBaXsUd7PJv+xDb+hKw7VC7d8VeF6T5/wDP2jlk0XzHqlrBHWiwXU6R8elWjDcfvxVM&#xA;LVvNHny6a78xa3eX6WtFEl1M87jlvxj9RiEHyGKst0vy7pGmAG1tx6o/3c/xSf8ABHp9GKplirEP&#xA;zJ/45Vr/AMZ/+NGxVkOg/wDHD07/AJhYf+TYxVHYqxj8xP8AjgL/AMZ0/U2Kva/+cWv/ACWkv/bR&#xA;n/5NxYq9gxV2KuxV2KvBf+ctv+Ud0D/mMl/5NYq9g8k/8oZoH/bOtP8AkwmKp1irsVdiqncW1vcx&#xA;GK4iSaI9Y5FDKfoNRirAfPP5Rfl1qOganMdDtbW7jtppIrqzjW3kWRULK37sKrbj9oHFXz7+Sv5P&#xA;af8AmBDq019qEtkmn+lHEsCKxZ5eR5MW7AJ0/HFWc/8AQtn5gaDI03k/zibd68gQ9xp7/wDBW7TV&#xA;PviqKi1b/nL7yqTwuZNatF68/qt8Gp/rgXP6sVRkH/OXX5naC4j84+S46jaoW505z7/vhcKfoGKs&#xA;y0L/AJzQ/Le84pq2najpcp+04SO5hH+yR1k/5J4q9B0P8/Pye1sL9T81WUTN0S8ZrJq+FLkRb/LF&#xA;WcWV9Y30AuLK4iurdvszQusiH5MpIxVXxV5n5/8A+ciPyw8lmW3utSGparHsdM06k8obwkcERR07&#xA;hm5e2Kvnnzb/AM5Pfmx5zaWz8qWo8vaY9VM0B53JH+VdOFVP+eaq3ucVYFbeRZLq6e+1+9kv7yY8&#xA;piXZizeLyv8AG34Yqnl3YWdnot5DawpDH6ElVQAV+A9fHFWP/lp/vDe/8ZV/4jirMsVdirEPzJ/4&#xA;5Vr/AMZ/+NGxVkOg/wDHD07/AJhYf+TYxVHYqxj8xP8AjgL/AMZ0/U2Kva/+cWv/ACWkv/bRn/5N&#xA;xYq9gxV2KuxV2KvBf+ctv+Ud0D/mMl/5NYq9g8k/8oZoH/bOtP8AkwmKp1irsVdirsVS7zJ/yjuq&#xA;f8wc/wDyabFXhv8AziL/AMc7zN/xmtP+Iy4q+g8VdirTojqUdQysKMpFQR7jFWM6v+WP5e6uSdQ8&#xA;vWMkh+1KkKxSH5yRcH/HFWE6x/zi/wDlpegmy+u6W/7Ign9RPpE4lYj/AGWKsSuf+cW/MWmTG68r&#xA;ebDBODWP1EltXFOlZoHc/wDCYq8382a5+clrrk3kfX/M2pTyK4glhe+nkgljcAqxJYF0ZDX4h9Fc&#xA;VRGleQtHs6Pc1vZh/vwUj+hB/EnFWSIiIgRFCouyqooAPYDFV2KoTVv+OVe/8YJf+IHFWMflp/vD&#xA;e/8AGVf+I4qzLFXYqxD8yf8AjlWv/Gf/AI0bFWQ6D/xw9O/5hYf+TYxVHYqxj8xP+OAv/GdP1Nir&#xA;2v8A5xa/8lpL/wBtGf8A5NxYq9gxV2KuxV2KvBf+ctv+Ud0D/mMl/wCTWKvYPJP/AChmgf8AbOtP&#xA;+TCYqnWKuxV2KuxVLvMn/KO6p/zBz/8AJpsVeG/84i/8c7zN/wAZrT/iMuKvoPFXYq7FXYq7FXYq&#xA;+TPzm/8AJ9yfK0/6h1xVH4q7FXYqhNW/45V7/wAYJf8AiBxVjH5af7w3v/GVf+I4qzLFXYqxD8yf&#xA;+OVa/wDGf/jRsVZDoP8Axw9O/wCYWH/k2MVR2KsV86SfpEWegaeputWvLmOOC1iozl2+BFp4szAA&#xA;Yq9u/wCcWv8AyWkv/bRn/wCTcWKvYMVdirsVdirwX/nLb/lHdA/5jJf+TWKvYPJP/KGaB/2zrT/k&#xA;wmKp1irsVdirsVS7zJ/yjuqf8wc//JpsVeG/84i/8c7zN/xmtP8AiMuKvoPFXYq7FXYq7FXYq+TP&#xA;zm/8n3J8rT/qHXFUfirsVdiqE1b/AI5V7/xgl/4gcVYx+Wn+8N7/AMZV/wCI4qzLFXYqxD8yf+OV&#xA;a/8AGf8A40bFU4sNRstP8t6fPdyrFGLWGhPUn0xsoG5PyxVjV75q1vW52sdBgeOM7NN0eniW6Rj8&#xA;cVQWs+VptE0yLUzdudRWdTyjJUK27Blb7XIFa8sVZn+XP503H5dDUtDhtE17y8L2Rra7Rjbuanh6&#xA;ikq4IkSMMFYfTir2LQP+cmPy01MKl7LcaRMdiLqIslfZ4fV292AxV6No3mXy9rcXq6PqdrqCUqTb&#xA;TJKR/rBSSPpxVMsVdirwX/nLb/lHdA/5jJf+TWKvYPJP/KGaB/2zrT/kwmKp1irsVdirsVS7zJ/y&#xA;juqf8wc//JpsVeG/84i/8c7zN/xmtP8AiMuKvoPFXYq7FXYq7FXYq+TPzm/8n3J8rT/qHXFUfirs&#xA;VdiqE1b/AI5V7/xgl/4gcVYx+Wn+8N7/AMZV/wCI4qzLFWndEQu7BUUVZiaAAdyTirzzz15jsdRE&#xA;NlZt6qQuXkmH2S1KAL49Tvirfl3yZcanBBealMy2fH9xCCS5Su3X7K4qzyzsbSygEFpEsMS9FUfi&#xA;T1J9zirH/wAxP+OAv/GdP1Nir2b/AJxftbWb8sblJYUkSbUZxKrqGDgRxUDAjf6cVZXr/wCSH5Ya&#xA;2We40OG2nb/d1lytSD48YiqE/wCspxV5zrP/ADihaxyfWfLPmGe0njPKFLtA5B9pofTK/wDAHFUt&#xA;/Qv/ADlB5N/3jvH12yTqFlS+BA6AJcBbgf7AYqiLH/nKDzLpM4s/OPlZobgbSGL1LSQU/wCKLgPU&#xA;/wCzGKsX/Pb83vLHnrSNHtdGiuo5bWWSe4FyiJx5KFC/C71PyxV9F/lrrOlar5G0SXT7qO5SKxto&#xA;puDAlJI4gjo46qQykb4qyfFXYq7FXYql3mT/AJR3VP8AmDn/AOTTYq8N/wCcRf8AjneZv+M1p/xG&#xA;XFX0HirsVdirsVdirsVfJn5zf+T7k+Vp/wBQ64qj8VdirsVQmrf8cq9/4wS/8QOKsY/LT/eG9/4y&#xA;r/xHFU41zzXpekqUdvWuu1tGd/8AZHouKsYW380ebHDzN9U0ytVFCEI8VXrIfc7Yqs83+WtM0jSb&#xA;VrZWM5l4STMxJYFSen2R08MVZtoP/HD07/mFh/5NjFUdirGPzE/44C/8Z0/U2Kva/wDnFr/yWkv/&#xA;AG0Z/wDk3Fir2DFXYq7FUPfafYX9u1tf20V3bt9qGdFkQ/NXBGKvmr/nJj8vvKfl+10jVdDsI9Om&#xA;u5pYLmGAcImAUOrcBspH+TTFW9H/AOcZvMEmhaZruh+ZlttTu7aK59NkkgCGZBIFWeJnfatPsYqi&#xA;vU/5yj8m/aWTX7GL2TUOdPlS8/ViqN0r/nKq5tJ/qnmzy1JbTp/evasUcf8ARvcBT98mKvQ9A/Pv&#xA;8rdZCqusLp87dYdQU29PnI37n/h8VZ5aXlpeQLPaTx3ED/ZliZXQ/JlJGKoTzJ/yjuqf8wc//Jps&#xA;VeG/84i/8c7zN/xmtP8AiMuKvoPFXYq7FXYq7FXYq+TPzm/8n3J8rT/qHXFUfirsVdiqV+ZNRtLL&#xA;R7pp3CtJE8cSVHJmZaAAfTirznQLjzCwl0/SCw9ejSlAAVA2rzP2fvxVmOh+RLK0IuNRIvLrrxO8&#xA;an5H7X0/dirKQABQbAdBirEPzJ/45Vr/AMZ/+NGxVkOg/wDHD07/AJhYf+TYxVHYqxj8xP8AjgL/&#xA;AMZ0/U2Kva/+cWv/ACWkv/bRn/5NxYq9gxV2KuxV2KvBf+ctv+Ud0D/mMl/5NYq9g8k/8oZoH/bO&#xA;tP8AkwmKp1iqC1XRNG1eD0NVsLe/h7R3MSTKK+AcNirzzX/+ccPyv1Us8FnNpUzbl7GUqtf+Mcol&#xA;jH+xUYqwO6/5xm846HO155M81GOYbqrmWykoO3qwNIG+kDFUq1/zB/zkr5V0W+ttaie70x4Xikv2&#xA;ihuhFGw4s/qw1ZevWXFWO/kb+bum+QbjUrfVbSa40/UvSb1bYK0sckXID4XZAVIc13rtir6L0D87&#xA;Pyx1zglrrsFvO3+6LzlasD/LWYKjH/VY4qzWKaKaNZYXWSJxVHQhlI8QRiq/FXYq7FXYq+TPzm/8&#xA;n3J8rT/qHXFUfiq13SNC8jBEUVZmNAB4knFWI6z58QSfVNGjN1cseImoStf8hRux/D54qlr+T9Xv&#xA;LS51PWbpluFiaRIz8bfCCwDdlHsMVR/5aKv1O9ag5GRAT3oFP9cVZnirsVYh+ZP/AByrX/jP/wAa&#xA;NirIdB/44enf8wsP/JsYqjsVYx+Yn/HAX/jOn6mxV7X/AM4tf+S0l/7aM/8AybixV7BirsVdirsV&#xA;eC/85bf8o7oH/MZL/wAmsVeweSf+UM0D/tnWn/JhMVTrFXYq7FXYqlvmZVby3qqsAVNncAg7ggxN&#xA;ir53/wCcYfJ/lfXrLzFJrWl22ovE1vFCbmNZeCuJC3DlXiTxG43xV6Br/wDzjL+WupBnsY7nSJju&#xA;DbSl46+6T+pt7KRirCpf+cdvzM8tStP5L801WvIxiSaxkb2KoZY3/wBkRiqz/lYX/OSHk74df0Vt&#xA;VtY/tTyW4mUL/wAZ7IhR83riqe6B/wA5YeWbgrHrukXWnSHZpbdluYwfE19FwPkrYq9I0D82Py61&#xA;7ium69atK3SCZvq8pPgI5hGx+gYqywEEAg1B3BGKvk385v8AyfcnytP+odcVQeuebNL0kGNm9e77&#xA;W8Z3B/yz0X9eKsZW18z+bJBJcN9U0ytVG4Sn+SvVz7nbFWXaN5d0zSY6W0dZiKPO+7n6ew9hiqI1&#xA;b/jlXv8Axgl/4gcVYx+Wn+8N7/xlX/iOKsyxV2KsQ/Mn/jlWv/Gf/jRsVZDoP/HD07/mFh/5NjFU&#xA;dirGPzE/44C/8Z0/U2Kva/8AnFr/AMlpL/20Z/8Ak3Fir2DFXYq7FXYq8F/5y2/5R3QP+YyX/k1i&#xA;r2DyT/yhmgf9s60/5MJiqdYq7FXYq7FUu8yf8o7qn/MHP/yabFXhv/OIv/HO8zf8ZrT/AIjLir6D&#xA;xV2KuxVIte8ieTfMAb9M6NaXjt1mkiUS/RKoEg+hsVeb6/8A84s+Qb7k+k3F3pEh+yiv9YhH+xlr&#xA;If8AkZirEj+SH51+U6t5Q8y/WbZKlLaOeS2LfOCUtb/e+KvHPNTectQ85XUfmMzP5maYRXIl4q4c&#xA;ABQAlEChacePw03G2Ksp0PyLY2ZE9+ReXXWhH7tT8j9r5n7sVZRirsVQmrf8cq9/4wS/8QOKsY/L&#xA;T/eG9/4yr/xHFWZYq7FWIfmT/wAcq1/4z/8AGjYqyHQf+OHp3/MLD/ybGKq97fWtlbtc3UgihTqz&#xA;fqA7nFWA3/mqw1fWLBdThmXy1DdRteJDT15Ig3x0JIUPwrxFcVfRP/OLX/ktJf8Atoz/APJuLFXs&#xA;GKuxV2KuxV4L/wA5bf8AKO6B/wAxkv8AyaxV7B5J/wCUM0D/ALZ1p/yYTFU6xV2KuxV2Kpd5k/5R&#xA;3VP+YOf/AJNNirw3/nEX/jneZv8AjNaf8RlxV9B4q7FXYq7FXYq7FXyZ+c3/AJPuT5Wn/UOuKo/F&#xA;XYq7FUJq3/HKvf8AjBL/AMQOKsY/LT/eG9/4yr/xHFWZYq7FWIfmT/xyrX/jP/xo2KoseZNP0jy5&#xA;pzSt6k7WsPpW6kcj+7A38B74qkdnpWt+a7pb3UnMGnKf3SDYEeEan8WOKpj52sLSx8sR29rEIoln&#xA;SijueLbk9zirIvyx/Om2/LiTUvLN1b/pnREvpWt9RtGCOQD6ZkRHADpII1ZastP1KvePK/51flv5&#xA;j4JaaxHbXT0H1S9/0aSp/ZHOiOf9RjirOAQQCDUHcEYq3irsVeC/85bf8o7oH/MZL/yaxV7B5J/5&#xA;QzQP+2daf8mExVOsVdirsVdiqXeZP+Ud1T/mDn/5NNirw3/nEX/jneZv+M1p/wARlxV9B4q7FXYq&#xA;7FXYq7FXyZ+c3/k+5Plaf9Q64qj8VdirsVQmrf8AHKvf+MEv/EDirGPy0/3hvf8AjKv/ABHFWZYq&#xA;7FXn3n/XrK89GwtXEvoOXmkXdQ1KBQe/U1xVW8o+S4ZYYtS1Ec1kHOC27U7M/jXqBirOgAAABQDY&#xA;AYqxn8xP+OAv/GdP1Nir13/nGvQtE1L8r7qLUdPtryOfUZhMk8SSBwscfHlyBrxqaeGKpn5o/wCc&#xA;Zvy81bnLpgn0S6apBtm9SHke5il5beyMuKsGP5Tfnv5GYyeUNbOo2Me6W0UvGoH81pc8oa/6rE4q&#xA;itO/5yU84aBdLp/nzy08co2M0SPazUHVvSmqj/7FlGKvTvK/53/lr5i4JbaulndP/wAel/8A6M9T&#xA;2DOfTY+yucVYB/zlq6N5c8vlWBDXcpWh6j0huPvxV7D5J/5QzQP+2daf8mExVOsVdirsVdiqXeZP&#xA;+Ud1T/mDn/5NNirw3/nEX/jneZv+M1p/xGXFX0HirsVdirsVdirsVfJn5zf+T7k+Vp/1DriqPxV2&#xA;KuxVCat/xyr3/jBL/wAQOKsY/LT/AHhvf+Mq/wDEcVZbc3VvawPPcSLFCgqzsaAYqwfUvMGreY7l&#xA;tN0RGjtTtLKfhLL0q7fsr7dT+GKoLzP5WtNG0i1kV2lu3l4yydFIKk0C+1MVZ5oP/HD07/mFh/5N&#xA;jFUdirGPzE/44C/8Z0/U2Kva/wDnFr/yWkv/AG0Z/wDk3Fir2DFXYqhtR0vTdTtWtNRtIb21f7cF&#xA;xGsqH5q4IxV5h5o/5xp/LrWOcunxzaJdNvytX5Qk+8MnIU9kK4q8C/Nj8p/MPkNrEXl+upaVcc0s&#xA;rheScGWjMhiYtwqDX4SRirMvI/8AzkZ5l8s6LpmneYtEa90uOJYrK/XnBM8MfwqauGjm4gcajj7m&#xA;uKvYvK/58fln5g4Rx6oNOunp/ouoj6u1T0HqEmEn2D4qz+OSORFkjYPG4BV1IIIPQgjFV2KuxVLv&#xA;Mn/KO6p/zBz/APJpsVeG/wDOIv8AxzvM3/Ga0/4jLir6DxV2KuxV2KuxV2Kvkz85v/J9yfK0/wCo&#xA;dcVR+KuxV2KoTVv+OVe/8YJf+IHFWC+TvMOnaRpl6blyZi6tFCoPJ/hpt2xVUhtNd833IuLljbaW&#xA;jfAB9nbaiA/abxY/2YqzfTdLstNtlt7SMRxjqerMfFj3OKsa/Mn/AI5Vr/xn/wCNGxVkOg/8cPTv&#xA;+YWH/k2MVR2KsY/MT/jgL/xnT9TYq9r/AOcWv/JaS/8AbRn/AOTcWKvYMVdirsVdirwX/nLb/lHd&#xA;A/5jJf8Ak1ir1nytYWN/5D0O1vreK6tpNNtBJBOiyRt+4TqrAg4qw3zR/wA44flvrXOW0tpNFumq&#xA;fUsmpHX3hfmlPZOOKvP5PyS/ObyXKZ/JGvm8tlJK20cpt2bv8VvMWt2+ljiqraf85DfmL5WuEsfP&#xA;nltn34i4CPZytTqwqGhl/wBhxGKvSvK/5+flnr/CMamNMum/499RAtz/AMjatCf+DxVmGvyxS+Wd&#xA;SlidZI3s5yjqQykGJtwRirxD/nEX/jneZv8AjNaf8RlxV9B4q7FXYq7FXYq7FXyZ+c3/AJPuT5Wn&#xA;/UOuKo/FXYq7FWI+b/N1pb28+nWhE11IpjldT8MYOzCvdqfdiqReSPLlrqk0tzd/FBblQIgaB2O/&#xA;xewxV6UiIiKiKFRRRVAoAB0AAxVvFWIfmT/xyrX/AIz/APGjYqyHQf8Ajh6d/wAwsP8AybGKo7FW&#xA;MfmJ/wAcBf8AjOn6mxV7X/zi1/5LSX/toz/8m4sVewYq7FXYq7FXgv8Azlt/yjugf8xkv/JrFXsH&#xA;kn/lDNA/7Z1p/wAmExVOsVdiqjd2dne27215BHc28gpJDMiyIw8CrAg4q8180f8AOOf5a63zltrR&#xA;9Gum39WwbglfeFw8YH+qFxV5b5m/Iv8AM3ydpGoT+W9fkvdFWGR7y0t5JrWV4qVkrAGaN/h60ap8&#xA;MVYZ+UP5u3f5e3t5WyGoabqAT6xbhxE6vHXi6PxfoGNVPX2xV9F+V/8AnIT8s9d4RyX50i6ag9DU&#xA;V9Ja/wDGYFoafNhir0a3ube5hWe2lSeFxVJY2Dqw8Qy1BxVUxV2KuxV2Kvkz85v/ACfcnytP+odc&#xA;VR+KrJpoYImmmdY4kFXdjQAe5OKsH1XzRqWtXJ0zQEcRts84+FmHc1/YX8cVR9r5N0/TNGu5LhVu&#xA;rwwSEyMKqh4E/AD+vriqj+Wn+8N7/wAZV/4jirMsVdirEPzJ/wCOVa/8Z/8AjRsVZDoP/HD07/mF&#xA;h/5NjFUdirHNcs77zTq+n+T9CiN5q95cLWNASIwAficj7IUHkx7KN8Vez/8AOLX/AJLSX/toz/8A&#xA;JuLFXsGKuxV2KuxV4L/zlt/yjugf8xkv/JrFXsHkn/lDNA/7Z1p/yYTFU6xV2KuxV2Kpd5k/5R3V&#xA;P+YOf/k02KvBv+cTrCxudO8z/WbaKfm9rE/qIr1jIkJQ8gfhJANMVegeaP8AnHv8s9d5yR2B0i6a&#xA;p9fTm9Ja/wDGEhoafJRirzm4/wCcfvzP8pzveeRfMZlUHl9XEjWcr+zIS8En+zYfLFWoPz2/Nryb&#xA;Klr578um5hB4/WmjNq79iVljD28n+xX6cVeieV/+ciPy01zhHPeto903WHUF9NK9/wB8paKn+swx&#xA;V6Ra3dpdwLcWk0dxA+6SxMHQ/JlJBxVVxV8mfnN/5PuT5Wn/AFDrirer61YaVbGe7elf7uMbu58F&#xA;GKsLC695xuqtW10mNtuvEU8OnN/wGKs10nR7DS7YQWkfEftyHd3PixxVdq3/AByr3/jBL/xA4qxj&#xA;8tP94b3/AIyr/wARxVmWKuxViH5k/wDHKtf+M/8Axo2Ksh0H/jh6d/zCw/8AJsYqpBtf8wa9D5U8&#xA;o2xvdcuqiRx/d26D7Tux2Xj3J6fPbFX1h+TX5NaJ+W+iFEIvfMN6A2rasw+J26+nHXdYlP0sdz7K&#xA;vJv+cWv/ACWkv/bRn/5NxYq9gxV2KuxV2KvBf+ctv+Ud0D/mMl/5NYq9g8k/8oZoH/bOtP8AkwmK&#xA;p1irsVdirsVS7zJ/yjuqf8wc/wDyabFXhv8AziL/AMc7zN/xmtP+Iy4q+g8VdiqyeCGeJ4Z41lhk&#xA;HF43AZWB7EHY4q8780f84/8A5Z69zkGnHSrpt/X05hAK/wDGKjQ/8Jirze5/5x4/MjytO975F8yl&#xA;zXkYOb2crU6KaF4ZP9mQMVWxfnh+cPkuRbfzz5eN3bqeP1p4zbMx/wAmeIPbv/sV+nFXlPn/APMB&#xA;/M3n2481Wlr9T5mIQQSMJCBDGIwWIC/a41oMVRWkeVNQ1e5/Smvu3F90tzszDtUD7C+2Ks2iiihi&#xA;WKJBHGgoiKKAAeAGKr8VQmrf8cq9/wCMEv8AxA4qxj8tP94b3/jKv/EcVZlirsVYh+ZP/HKtf+M/&#xA;/GjYqjPK6a/5ufSfKPk6FrjVZ7eNLq5IZI7aNFCyO7kfCF7t9C1YjFX2R+Un5P8Alz8t9ENrYVut&#xA;Vugrapq0oHqzuOw/kjU14pX5knfFWeYq+X4Pyk/Oj8p5bx/JJtvNnliab130uSsd2o6EhCVHPjRa&#xA;ozcqV4dsVTLy7/zkF5Su7s6X5kguPKmtRnhNaakjJGr+HqlV4/8APRVxV6bbXNvdQJcW0qTwSDlH&#xA;LGwdGHirLUHFVTFXYq8F/wCctv8AlHdA/wCYyX/k1ir2DyT/AMoZoH/bOtP+TCYqnWKuxV2KuxVL&#xA;vMn/ACjuqf8AMHP/AMmmxV4b/wA4i/8AHO8zf8ZrT/iMuKvoPFXYq7FXYq7FVssUUsbRSoskbijo&#xA;wDKQexBxV8ffmj5f0fSvzunsNPtUt7JpLecWyCkavJEsjcV6Ac9+PT6MVT/FXYq7FUJq3/HKvf8A&#xA;jBL/AMQOKsY/LT/eG9/4yr/xHFWZYq7FUv8AL3ljUPzK886b5c0e3+s6bY3Edxrl6R+5igDAPVh1&#xA;JXkqivxHpsCcVfZ/k38vPJfku0ltfLGkw6bFMeUzJzeRyOnOWRnkYDsC22KsixV2KuxVIfNnkPyd&#xA;5us/qnmTSLfU4gKI0yfvU/4xyrxkj/2LDFXjOp/84zeY/LU0l/8AlV5ruNLYnm2i6ixltXPhyCsP&#xA;Yc42P+ViqSv+b/nnyZOll+aPlOewjLcF1uwHq2rnoDsWT3PGSv8Ak4q9F8sed/Knmi39fQtTgvgA&#xA;GeJGpKgP88TUkT6VxV5D/wA5bf8AKO6B/wAxkv8AyaxV7B5J/wCUM0D/ALZ1p/yYTFU6xV2KuxV2&#xA;Kpd5k/5R3VP+YOf/AJNNirw3/nEX/jneZv8AjNaf8RlxV9B4q7FXYq7FXYq7FXyZ+c3/AJPuT5Wn&#xA;/UOuKo/FXYq7FUJq3/HKvf8AjBL/AMQOKsY/LT/eG9/4yr/xHFWZEgCp2A6nFUH5b8u+ZPzN8w/4&#xA;a8rgw6bGf9zGtsCYYYq0IBFORboqg1b2WpxV9j/l9+XnlnyH5fi0TQLf04R8dzcP8U1xLShllfuT&#xA;4dB0AAxVk2KuxV2KuxV2KuxVZPbwXELwXEazQSqVkikUMjKdiGU1BBxV5B5x/wCcXfy71q4Oo6D6&#xA;/lPWlPOK70tuEQfsTBUKP+eZT54q8e/Mz8hP+cg7/TzDqGqQeZtK0WOS4smjYLcybfEvp+mJJJaD&#xA;YFm9jXFWWfld+dXk260TTdA1e5Gia7YQR2c9regwozwqI6rI9FBbiPhYg123xV6yrK6hlIZWFVYb&#xA;gg9xireKuxV2Kpd5k/5R3VP+YOf/AJNNirw3/nEX/jneZv8AjNaf8RlxV9B4q7FXYq7FXYq7FXyZ&#xA;+c3/AJPuT5Wn/UOuKo/FXYq7FUJq3/HKvf8AjBL/AMQOKsX/AC2ZV0++ZiAokUknYABcVZZ5Q8n+&#xA;ZvzV16TRPLzfVPL9qR+mdbZSUVSfsJ05M37Kg796Lvir7K8keSPLvkry7b6DoNuILOAVdzQyTSED&#xA;lLK1Bydqbn6BQADFU+xV2KuxV2KuxV2KuxV2KuxV2KsU86/lZ5B86xFfMejQXk/Hil6AYrpAOnGe&#xA;PjJQfyk09sVeQXv/ADj3+ZHkx2ufyv8ANbz2Knl/h7VyGQjqVR6GKrf6kZ/ysVS2D889W8uXiaX+&#xA;Z3lm78uXh+Fb+JGltJD3Zacqr/xjaTFXpuheZdA1+0+uaLqEGoW/RngcPxPg4G6n2YVxVMsVS7zJ&#xA;/wAo7qn/ADBz/wDJpsVeG/8AOIv/ABzvM3/Ga0/4jLir6DxV2KuxV2KuxV2Kvkz85v8AyfcnytP+&#xA;odcVR+KuxV2KoLWpI4tHvXkYKogkqT7qQPxxVd+UX/OPf5gedbCxvWmTTPJWqMZbi99SNppEhleJ&#xA;0jiFX58ozTnRe+/TFX2p5S8oeXvKOhW+h6BaLZ6db1KotSzOftSSOfid27k/qxVOMVdirsVdirsV&#xA;dirsVdirsVdirsVdirsVQ2paZpuqWUljqVrDe2UwpLbXEayxOP8AKRwVOKvGvNP/ADit5TnvDq3k&#xA;nUbrydrSktG9m7PbEnehjLK6A/5Dhf8AJOKsTu9W/P8A/Lyo81aGnm7QYuus6X/fKg/akRFDfCOv&#xA;OIf6/fFUwi/O78uPMXljVDBqiWN19Tn5WV/S3mBMbDitSUc17IxxVhP/ADiL/wAc7zN/xmtP+Iy4&#xA;q+g8VdirsVdirsVdir5M/Ob/AMn3J8rT/qHXFUfirsVUL29tbK2e5upBFCgqzH9Q8Tiqcflf+UXm&#xA;L82L1NT1MS6T5Cgk2anGa9KHdYq9uxf7K9BU1oq+xNG0fTNF0q00nS7dbXTrGJYLW3SpCRoKAVJJ&#xA;PzJqcVRmKuxV2KuxV2KuxV2KuxV2KuxV2KuxV2KuxV2KuxV2KsD87fkb+WHnORrjWdFiW+ZuTX9p&#xA;W2uGP+W8fH1P9mDirynUv+cefP3kTX7rXPyjvreWwuY0WfQNRcln478RI1Ef4qkFnRhUipxVCx/n&#xA;vqXl+6j0/wDMnyrfeXLpiFF7HG0tq57staHjsf7tpMVejeXPOPlbzJb+voWqW9+oFWSJx6ij/LjN&#xA;HT/ZKMVTnFXYq7FXYq+TPzm/8n3J8rT/AKh1xVH4qgtW1iy0q1NxdPQdEQfac+CjFWd/k9+QWree&#xA;Lm282+fIXtPLikS6VoRJV7lTuJJejLEf+Cf2WlVX1fbW1va28VtbRJBbwqI4YY1CIiKKKqqtAAB0&#xA;AxVUxV2KuxV2KuxV2KuxV2KuxV2KuxV2KuxV2KuxV2KuxV2KuxV2KqF9YWN/ayWl9bxXdpMOMtvO&#xA;iyRuPBkYFT9OKvI/Nf8Aziv+WurXH1/RBceVtVU8ornTHKxh/H0WJVevSMpirELnyn/zkp5F3s57&#xA;bz9osf7D/u74KO/xFZCx/wBeX5Yq7Rf+ch/Kr3n6M802V55V1ZaCW3v4n4KT2LhVdf8AZooxV6Zp&#xA;2qabqdol5p11De2kn2J7d1kQ99mUkYqicVfJn5zf+T7k+Vp/1DriqlrevW2lxqpUz3kx421om7ux&#xA;NBsK7VxV7J+Sn/OOd1LdQec/zIhE2oGkmmeX5BWO3HVXuEO3PuI+g/aq2yqvpHFXYq7FXYq7FXYq&#xA;7FXYq7FXYq7FXYq7FXYq7FXYq7FXYq7FXYq7FXYq7FXYq7FUp8x+UvLHmWz+p6/pdrqdvvxS5iWQ&#xA;qT3RiOSH3Ug4q8c1v/nFLSbS6fUvy88w3/lPUDuIFkee2IHRN2WUA/5Tv8sVSC61f/nIjyJX/E/l&#xA;2LzdpEX2tV0j++492ZI15AL/AJUCj/KxV47qdh55/Nn8wtS8zeSfL9xKtobdHSR4l9MqgjX1GkaN&#xA;AzcCeIJpir6N/JD/AJx5tvKcqeaPNjJqfnOX40J+OGyqKcYuzSU6vTbou27KvbcVdirsVdirsVdi&#xA;rsVdirsVdir/AP/Z</xmpGImg:image>
               </rdf:li>
            </rdf:Alt>
         </xmp:Thumbnails>
      </rdf:Description>
      <rdf:Description rdf:about=""
            xmlns:xmpMM="http://ns.adobe.com/xap/1.0/mm/"
            xmlns:stRef="http://ns.adobe.com/xap/1.0/sType/ResourceRef#"
            xmlns:stEvt="http://ns.adobe.com/xap/1.0/sType/ResourceEvent#">
         <xmpMM:InstanceID>xmp.iid:F6F25F0A17206811822AB07F030AAF4B</xmpMM:InstanceID>
         <xmpMM:DocumentID>xmp.did:F6F25F0A17206811822AB07F030AAF4B</xmpMM:DocumentID>
         <xmpMM:OriginalDocumentID>uuid:5D20892493BFDB11914A8590D31508C8</xmpMM:OriginalDocumentID>
         <xmpMM:RenditionClass>proof:pdf</xmpMM:RenditionClass>
         <xmpMM:DerivedFrom rdf:parseType="Resource">
            <stRef:instanceID>xmp.iid:0580117407206811822AB07F030AAF4B</stRef:instanceID>
            <stRef:documentID>xmp.did:0580117407206811822AB07F030AAF4B</stRef:documentID>
            <stRef:originalDocumentID>uuid:5D20892493BFDB11914A8590D31508C8</stRef:originalDocumentID>
            <stRef:renditionClass>proof:pdf</stRef:renditionClass>
         </xmpMM:DerivedFrom>
         <xmpMM:History>
            <rdf:Seq>
               <rdf:li rdf:parseType="Resource">
                  <stEvt:action>saved</stEvt:action>
                  <stEvt:instanceID>xmp.iid:0180117407206811822AB07F030AAF4B</stEvt:instanceID>
                  <stEvt:when>2014-06-01T03:22:45+09:00</stEvt:when>
                  <stEvt:softwareAgent>Adobe Illustrator CS6 (Macintosh)</stEvt:softwareAgent>
                  <stEvt:changed>/</stEvt:changed>
               </rdf:li>
               <rdf:li rdf:parseType="Resource">
                  <stEvt:action>saved</stEvt:action>
                  <stEvt:instanceID>xmp.iid:F6F25F0A17206811822AB07F030AAF4B</stEvt:instanceID>
                  <stEvt:when>2014-06-02T00:27:26+09:00</stEvt:when>
                  <stEvt:softwareAgent>Adobe Illustrator CS6 (Macintosh)</stEvt:softwareAgent>
                  <stEvt:changed>/</stEvt:changed>
               </rdf:li>
            </rdf:Seq>
         </xmpMM:History>
      </rdf:Description>
      <rdf:Description rdf:about=""
            xmlns:illustrator="http://ns.adobe.com/illustrator/1.0/">
         <illustrator:StartupProfile>Print</illustrator:StartupProfile>
      </rdf:Description>
      <rdf:Description rdf:about=""
            xmlns:xmpTPg="http://ns.adobe.com/xap/1.0/t/pg/"
            xmlns:stDim="http://ns.adobe.com/xap/1.0/sType/Dimensions#"
            xmlns:xmpG="http://ns.adobe.com/xap/1.0/g/">
         <xmpTPg:HasVisibleOverprint>False</xmpTPg:HasVisibleOverprint>
         <xmpTPg:HasVisibleTransparency>False</xmpTPg:HasVisibleTransparency>
         <xmpTPg:NPages>1</xmpTPg:NPages>
         <xmpTPg:MaxPageSize rdf:parseType="Resource">
            <stDim:w>580.837891</stDim:w>
            <stDim:h>600.000000</stDim:h>
            <stDim:unit>Pixels</stDim:unit>
         </xmpTPg:MaxPageSize>
         <xmpTPg:PlateNames>
            <rdf:Seq>
               <rdf:li>Cyan</rdf:li>
               <rdf:li>Magenta</rdf:li>
               <rdf:li>Yellow</rdf:li>
               <rdf:li>Black</rdf:li>
            </rdf:Seq>
         </xmpTPg:PlateNames>
         <xmpTPg:SwatchGroups>
            <rdf:Seq>
               <rdf:li rdf:parseType="Resource">
                  <xmpG:groupName>初期設定のスウォッチグループ</xmpG:groupName>
                  <xmpG:groupType>0</xmpG:groupType>
               </rdf:li>
            </rdf:Seq>
         </xmpTPg:SwatchGroups>
      </rdf:Description>
      <rdf:Description rdf:about=""
            xmlns:pdf="http://ns.adobe.com/pdf/1.3/">
         <pdf:Producer>Adobe PDF library 10.01</pdf:Producer>
      </rdf:Description>
   </rdf:RDF>
</x:xmpmeta>
                                                                                                    
                                                                                                    
                                                                                                    
                                                                                                    
                                                                                                    
                                                                                                    
                                                                                                    
                                                                                                    
                                                                                                    
                                                                                                    
                                                                                                    
                                                                                                    
                                                                                                    
                                                                                                    
                                                                                                    
                                                                                                    
                                                                                                    
                                                                                                    
                                                                                                    
                                                                                                    
                           
<?xpacket end="w"?>
	</metadata>
<path d="M580.213,162.271V52.467c0-2.243-1.135-4.63-3.014-5.856c-1.096-0.715-2.558-1.464-3.824-1.708
	c-0.581-0.112-7.185-1.079-11.685-1.735c-0.147-0.032-0.29-0.08-0.443-0.102L457.949,28.162c-2.438-0.195-4.589-0.586-7.836,0.585
	l-4.925,1.849c-0.518-2.497-1.883-4.398-4.519-4.777l-90.778-13.178c-2.244-0.195-3.709,0-6.052,0.586l-4.708,1.515
	c-0.673-2.377-2.895-4.174-5.442-4.541L262.049,0.067C261.734,0.023,261.42,0,261.103,0c-0.566,0-1.132,0.073-1.683,0.217
	L206.795,13.91c-2.741,0.718-4.553,3.08-4.883,5.84c-3.415-0.533-5.729-0.885-6.345-0.959c-3.661-0.439-6.916,0.002-7.467,0.146
	l-66.745,17.361c-2.818,0.739-4.777,3.223-4.924,6.087l-6.634-1.15c-0.378-0.065-4.863-0.558-8.507,0.43L23.847,61.948l-0.104-0.034
	c-0.104-0.02-1.177,0.293-2.74,0.778l-1.375,0.36c0.01-0.006-0.019,0.036-0.046,0.085c-5.15,1.627-13.275,4.31-13.545,4.421
	c-1.633,0.677-2.42,1.002-3.62,1.99C0.885,70.811,0,73.571,0,75.554V194c0,2.12,1.019,4.037,2.626,5.265
	c-0.016,0.011-0.03,0.019-0.046,0.03C0.953,200.551,0,202.492,0,204.549v120.999c0,2.164,1.05,4.142,2.733,5.369
	C1.018,332.166,0,334.161,0,336.286v116.307c0,2.688,1.62,5.109,4.104,6.14l97.224,40.198c0.813,0.336,1.678,0.503,2.535,0.503
	c1.297,0,2.583-0.38,3.691-1.119c0.113-0.074,0.217-0.164,0.326-0.248c0.396,2.197,1.874,4.088,3.988,4.962l108.937,45.013
	c0.812,0.338,1.678,0.503,2.536,0.503c1.296,0,2.583-0.378,3.688-1.119c0.114-0.077,0.217-0.167,0.325-0.249
	c0.414,2.292,2.004,4.239,4.247,5.062l126.504,46.223c0.741,0.271,1.513,0.402,2.279,0.402c1.343,0,2.674-0.407,3.807-1.196
	c1.45-1.016,2.411-2.562,2.718-4.276c0.395,0.299,0.812,0.57,1.271,0.778c0.881,0.4,1.813,0.595,2.748,0.595
	c1.576,0,3.134-0.561,4.367-1.638l76.138-66.483c1.445-1.261,2.271-3.084,2.271-5.001v-4.062c0.397,0.291,0.821,0.554,1.287,0.753
	c0.846,0.361,1.73,0.535,2.613,0.535c1.675,0,3.324-0.636,4.585-1.835l58.567-55.896c1.312-1.254,2.057-2.99,2.057-4.805v-4.062
	c0.4,0.291,0.823,0.557,1.292,0.757c0.84,0.357,1.729,0.531,2.608,0.531c1.677,0,3.33-0.636,4.592-1.842l46.854-44.824
	c1.312-1.252,2.053-2.982,2.053-4.798V296.547c0-2.532-1.438-4.843-3.713-5.96c-0.179-0.087-0.359-0.159-0.545-0.229l1.67-1.29
	c1.634-1.257,2.588-3.199,2.588-5.258V174.102c0-2.396-1.29-4.607-3.382-5.784c-0.075-0.044-0.157-0.074-0.235-0.115l0.412-0.249
	C578.994,166.751,580.213,164.596,580.213,162.271z"/>
<g>
	<g>
		<path fill="#FFFFFF" d="M194.973,25.362c-1.827-0.292-4.787-0.147-6.577,0.321l-55.299,14.483
			c-1.79,0.469-1.764,1.113,0.062,1.431l68.661,11.978c1.823,0.318,4.755,0.114,6.52-0.454l49.947-16.09
			c1.765-0.567,1.708-1.271-0.117-1.563L194.973,25.362z"/>
	</g>
	<g>
		<path fill="#FFFFFF" d="M263.895,6.591c-1.832-0.26-4.795-0.087-6.585,0.383l-41.381,10.868c-1.79,0.47-1.756,1.075,0.075,1.344
			l63.549,9.338c1.831,0.269,4.771,0.039,6.541-0.511l37.137-11.569c1.767-0.55,1.713-1.213-0.119-1.472L263.895,6.591z"/>
	</g>
	<g>
		<path fill="#FFFFFF" d="M350.736,19.521c-1.831-0.263-4.771-0.014-6.532,0.553l-35.803,11.532
			c-1.761,0.567-1.707,1.271,0.12,1.563l80.562,12.884c1.827,0.292,4.74,0.001,6.477-0.646l34.403-12.867
			c1.731-0.648,1.65-1.394-0.181-1.657L350.736,19.521z"/>
	</g>
	<g>
		<path fill="#FFFFFF" d="M287.049,40.086c-1.827-0.292-4.766-0.067-6.525,0.5l-50.602,16.3c-1.765,0.567-1.711,1.292,0.109,1.61
			l85.694,14.948c1.823,0.318,4.731,0.048,6.466-0.601l47.675-17.831c1.733-0.648,1.656-1.418-0.171-1.71L287.049,40.086z"/>
	</g>
	<g>
		<path fill="#FFFFFF" d="M457.468,34.86c-1.831-0.263-4.748,0.052-6.481,0.7l-35.042,13.105c-1.73,0.648-1.656,1.418,0.171,1.71
			L516.944,66.5c1.827,0.292,4.711-0.072,6.408-0.809l33.866-14.712c1.694-0.737,1.587-1.556-0.244-1.819L457.468,34.86z"/>
	</g>
	<g>
		<path fill="#FFFFFF" d="M396.728,57.626c-1.827-0.292-4.74-0.001-6.474,0.647l-48.216,18.033c-1.73,0.648-1.657,1.439,0.163,1.757
			l105.611,18.424c1.823,0.318,4.703-0.025,6.4-0.762l45.551-19.788c1.697-0.737,1.591-1.58-0.236-1.872L396.728,57.626z"/>
	</g>
	<g>
		<path fill="#FFFFFF" d="M323.286,85.138c-1.82-0.318-4.729-0.048-6.466,0.601l-66.271,24.785
			c-1.733,0.648-1.665,1.466,0.149,1.817l111.099,21.457c1.814,0.351,4.689,0.035,6.39-0.702l62.816-27.287
			c1.694-0.737,1.595-1.601-0.229-1.918L323.286,85.138z"/>
	</g>
	<g>
		<path fill="#FFFFFF" d="M209.141,65.227c-1.823-0.318-4.755-0.114-6.52,0.454L133.29,88.014c-1.764,0.567-1.716,1.319,0.102,1.67
			l91.513,17.674c1.817,0.351,4.724,0.108,6.455-0.541l65.618-24.541c1.733-0.648,1.66-1.439-0.163-1.757L209.141,65.227z"/>
	</g>
	<g>
		<path fill="#FFFFFF" d="M109.381,47.823c-1.822-0.318-4.778-0.194-6.568,0.274L27.658,67.781c-1.79,0.469-1.771,1.14,0.048,1.491
			L105.98,84.39c1.816,0.351,4.744,0.174,6.506-0.394l68.554-22.081c1.762-0.567,1.711-1.292-0.111-1.61L109.381,47.823z"/>
	</g>
</g>
<g>
	<g>
		<path fill="#D1D1D1" d="M9.943,76.195c-1.814-0.353-3.303,0.873-3.303,2.723v111.717c0,1.85,1.465,3.747,3.255,4.214
			l90.711,23.673c1.791,0.467,3.255-0.665,3.255-2.515v-118.2c0-1.85-1.484-3.653-3.303-4.006L9.943,76.195z"/>
	</g>
	<g>
		<path fill="#D1D1D1" d="M9.835,337.34c-1.757-0.58-3.194,0.459-3.194,2.311v109.577c0,1.854,1.398,3.942,3.108,4.649
			l91.003,37.629c1.71,0.707,3.107-0.229,3.107-2.079V371.746c0-1.854-1.438-3.839-3.193-4.419L9.835,337.34z"/>
	</g>
	<g>
		<path fill="#D1D1D1" d="M117.707,97.008c-1.815-0.353-3.305,0.873-3.305,2.723v118.86c0,1.85,1.467,3.747,3.257,4.213
			l102.426,26.713c1.79,0.467,3.255-0.665,3.255-2.515v-126.12c0-1.85-1.486-3.653-3.306-4.005L117.707,97.008z"/>
	</g>
	<g>
		<path fill="#D1D1D1" d="M117.66,233.354c-1.791-0.467-3.257,0.665-3.257,2.515V357.55c0,1.854,1.438,3.839,3.195,4.418
			l102.546,33.833c1.757,0.579,3.195-0.46,3.195-2.311V264.28c0-1.85-1.465-3.747-3.255-4.213L117.66,233.354z"/>
	</g>
	<g>
		<path fill="#D1D1D1" d="M9.896,205.398c-1.791-0.467-3.255,0.665-3.255,2.515v114.271c0,1.853,1.438,3.838,3.194,4.418
			l90.833,29.988c1.757,0.58,3.193-0.459,3.193-2.31V233.285c0-1.85-1.465-3.747-3.255-4.214L9.896,205.398z"/>
	</g>
	<g>
		<path fill="#D1D1D1" d="M117.6,372.707c-1.758-0.579-3.195,0.46-3.195,2.311v118.509c0,1.851,1.399,3.939,3.109,4.646
			l102.717,42.443c1.71,0.707,3.109-0.229,3.109-2.079v-127.58c0-1.852-1.438-3.839-3.195-4.418L117.6,372.707z"/>
	</g>
	<g>
		<path fill="#D1D1D1" d="M237.138,264.349c-1.791-0.467-3.256,0.666-3.256,2.516V396.76c0,1.854,1.438,3.838,3.192,4.418
			l120.114,39.604c1.758,0.58,3.195-0.46,3.195-2.312V299.834c0-1.85-1.465-3.746-3.256-4.213L237.138,264.349z"/>
	</g>
	<g>
		<path fill="#D1D1D1" d="M237.185,120.083c-1.816-0.352-3.303,0.874-3.303,2.724v126.78c0,1.85,1.465,3.746,3.256,4.213
			l119.993,31.271c1.791,0.467,3.256-0.666,3.256-2.516V147.352c0-1.85-1.486-3.653-3.303-4.005L237.185,120.083z"/>
	</g>
	<g>
		<path fill="#D1D1D1" d="M237.075,411.917c-1.757-0.58-3.192,0.46-3.192,2.311v128.401c0,1.854,1.422,3.884,3.158,4.521
			l120.186,43.917c1.738,0.635,3.16-0.359,3.16-2.21V455.934c0-1.851-1.438-3.838-3.195-4.418L237.075,411.917z"/>
	</g>
</g>
<g>
	<g>
		<path fill="#565656" d="M573.571,177.466c0-1.85-1.296-2.581-2.879-1.624l-41.096,24.839c-1.583,0.957-2.879,3.254-2.879,5.104
			v110.809c0,1.852,1.196,2.439,2.664,1.312l41.522-32.038c1.465-1.13,2.664-3.569,2.664-5.419L573.571,177.466L573.571,177.466z"/>
	</g>
	<g>
		<path fill="#565656" d="M573.571,58.219c0-1.85-1.386-2.755-3.08-2.01L529.8,74.105c-1.694,0.745-3.08,2.869-3.08,4.719v108.401
			c0,1.85,1.296,2.581,2.879,1.624l41.096-24.839c1.583-0.957,2.879-3.254,2.879-5.104L573.571,58.219L573.571,58.219z"/>
	</g>
	<g>
		<path fill="#565656" d="M516.176,211.732c0-1.85-1.297-2.583-2.881-1.627l-52.809,31.839c-1.584,0.956-2.881,3.251-2.881,5.102
			v122.211c0,1.854,1.2,2.44,2.666,1.312l53.235-40.968c1.466-1.129,2.666-3.565,2.666-5.416L516.176,211.732L516.176,211.732z"/>
	</g>
	<g>
		<path fill="#565656" d="M516.176,83.151c0-1.85-1.39-2.756-3.081-2.013l-52.405,22.991c-1.694,0.743-3.081,2.866-3.081,4.716
			v119.639c0,1.85,1.297,2.583,2.881,1.627l52.809-31.837c1.584-0.956,2.881-3.251,2.881-5.102L516.176,83.151L516.176,83.151z"/>
	</g>
	<g>
		<path fill="#565656" d="M573.571,299.912c0-1.85-1.199-2.439-2.664-1.309l-41.522,32.038c-1.468,1.129-2.664,3.567-2.664,5.418
			v107.494c0,1.854,1.094,2.317,2.432,1.038l41.99-40.17c1.338-1.279,2.432-3.84,2.432-5.69L573.571,299.912L573.571,299.912z"/>
	</g>
	<g>
		<path fill="#565656" d="M447.066,396.312c0-1.854-1.201-2.442-2.669-1.315l-70.8,54.364c-1.468,1.127-2.669,3.562-2.669,5.413
			v129.979c0,1.854,1.141,2.368,2.534,1.151l71.066-62.061c1.396-1.217,2.534-3.727,2.534-5.576L447.066,396.312L447.066,396.312z"
			/>
	</g>
	<g>
		<path fill="#565656" d="M516.176,343.65c0-1.854-1.2-2.44-2.666-1.312l-53.235,40.968c-1.466,1.128-2.666,3.565-2.666,5.416
			V508.86c0,1.851,1.097,2.316,2.436,1.041l53.698-51.247c1.338-1.278,2.437-3.837,2.437-5.688L516.176,343.65L516.176,343.65z"/>
	</g>
	<g>
		<path fill="#565656" d="M447.066,113.172c0-1.85-1.387-2.757-3.082-2.015l-69.974,30.628c-1.695,0.742-3.082,2.863-3.082,4.713
			v133.735c0,1.85,1.297,2.584,2.883,1.63l70.372-42.333c1.586-0.954,2.883-3.249,2.883-5.099V113.172z"/>
	</g>
	<g>
		<path fill="#565656" d="M447.066,252.992c0-1.85-1.297-2.584-2.883-1.63l-70.372,42.333c-1.586,0.954-2.883,3.249-2.883,5.099
			v136.514c0,1.854,1.201,2.442,2.669,1.315l70.8-54.362c1.468-1.127,2.669-3.562,2.669-5.413V252.992z"/>
	</g>
</g>
</svg>

